<svg xmlns="http://www.w3.org/2000/svg" xmlns:xlink="http://www.w3.org/1999/xlink" width="990px" height="640px" viewBox="0 0 990 640" preserveAspectRatio="xMidYMid meet"  ><rect id="svgEditorBackground" x="0" y="0" width="990" height="640" style="fill: none; stroke: none;"/><defs id="svgEditorDefs"><linearGradient gradientUnits="objectBoundingBox" id="gradient1" spreadMethod="pad" x1="0%" x2="98.8%" y1="0%" y2="73.2%" gradientTransform="rotate(0)"><stop offset="0.330909" stop-color="aqua"/><stop offset="0.961818" stop-color="dodgerblue"/></linearGradient><polygon id="svgEditorShapeDefs" style="fill:none;stroke:white;vector-effect:non-scaling-stroke;stroke-width:1px;"/><linearGradient gradientUnits="objectBoundingBox" id="lgrd2-peachpuff-sienna-v" spreadMethod="pad" x1="0%" x2="0%" y1="0%" y2="100%"><stop offset="0%" style="stop-color:peachpuff;  stop-opacity:0.84;"/><stop offset="100%" style="stop-color:sienna;  stop-opacity:1"/></linearGradient><linearGradient id="lgrd3-fr-h" gradientTransform="rotate(9.17925)"><stop offset="0%" stop-color="blue"/><stop offset="50%" stop-color="black" stop-opacity="0"/><stop offset="100%" stop-color="red"/></linearGradient><linearGradient id="lgrd3-fr-v" x1="0" x2="0" y1="0" y2="100%"><stop offset="0%" stop-color="blue"/><stop offset="50%" stop-color="black" stop-opacity="0"/><stop offset="100%" stop-color="red"/></linearGradient><symbol id="1f4b0" viewBox="0 0 64 64" preserveAspectRatio="xMidYMid meet"><rect x="0" y="0" width="64" height="64" style="stroke:none;fill:none;"/><g xmlns="http://www.w3.org/2000/svg"><path d="M54,46.888C54,59.038,44.15,59,32,59s-22,0.038-22-12.112S19.85,15,32,15S54,34.737,54,46.888z" fill="#dbb471"/><g fill="#89664c"><path d="m54 46.888c0-4.12-1.136-9.112-3.106-13.912.369 3.123-.425 8.648-9.893 10.658-13.501 2.866-6.528 6.749-11.765 7.182-4.518.374-16.48-1.44-18.879-8.206-.23 1.494-.357 2.934-.357 4.278 0 12.15 9.85 12.11 22 12.11s22 .038 22-12.11" opacity=".5"/><path d="m37.915 41.12c-.433-2-2.135-2.567-3.895-2.66-.005-.94-.005-1.881.002-2.821.54.234 1.058.505 1.528.794.831.515 1.585-.817.759-1.334-.72-.445-1.487-.808-2.28-1.081.011-1.09.017-2.178.017-3.266.001-.996-1.503-.996-1.503 0 0 .956-.006 1.911-.015 2.866-.802-.137-1.612-.149-2.423-.038-.131-.716-.286-1.425-.475-2.135-.249-.96-1.701-.553-1.449.409.185.692.335 1.382.459 2.081-.063.022-.133.035-.195.062-2.037.796-3.28 2.818-1.789 4.708.694.879 1.602 1.233 2.595 1.354.055 1.303.089 2.607.128 3.91-.666-.426-1.272-.974-1.821-1.549-.68-.707-1.741.384-1.063 1.09.923.966 1.892 1.699 2.942 2.166.047 1.113.114 2.228.224 3.336.098.981 1.603.988 1.505 0-.096-.958-.158-1.919-.205-2.88.571.099 1.173.124 1.81.063.072 1.025.155 2.049.274 3.074.112.976 1.618.984 1.504 0-.126-1.116-.217-2.235-.292-3.354 2.127-.646 4.189-2.347 3.658-4.795m-5.394-5.971c-.008 1.107-.01 2.214-.005 3.322-.483.027-.942.071-1.345.107-.172.014-.335.02-.496.021-.074-1.189-.178-2.375-.341-3.56.72-.103 1.458-.057 2.187.11m-3.636 3.185c-.442-.149-.833-.391-1.163-.723-.938-.863.351-1.712 1.163-2.114.126.965.215 1.938.281 2.912-.094-.025-.187-.045-.281-.075m3.361 6.409c-.472.053-.922.015-1.348-.091-.054-1.518-.089-3.037-.147-4.556.591-.024 1.19-.083 1.771-.128.021 1.569.061 3.144.146 4.713-.143.022-.282.05-.422.062m3.244-1.147c-.396.309-.853.535-1.332.712-.074-1.462-.112-2.918-.13-4.377.18.007.358.024.527.047 1.946.29 2.455 2.421.935 3.618"/></g><path d="m33.979 55.02h-2.271v3.978l9.292 5 21-6.5v-3.48l-7.67-4.52z" fill="#699635"/><path d="m32 52.747c0 0 2.438 3.88 9.204 7.253 0 0 10.563-.506 20.796-7.253 0 0-5.942-2.868-7.593-6.747 0 0-4.04 5.566-22.407 6.747" fill="#83bf4f"/><path d="m27.483 54.948l2.213-.177.304 3.759-8.674 5.47-20.96-4.51-.267-3.29 7.124-4.89z" fill="#699635"/><path d="m29.24 52.636c0 0-2.079 3.866-8.415 7.591 0 0-10.333.349-20.821-5.24 0 0 5.571-3.183 6.884-6.986 0-.001 4.367 4.955 22.352 4.635" fill="#83bf4f"/><path d="m24.25 53.687c0 0-.313.811 1.114.857l-3.715 3.126c0 0-2.151-.248-2.652 1.283 0 0-8.992-.953-14.788-3.585 0 0 1.176-.934-.262-1.514 0 0 1.697-1.224 2.108-2.288 0 0 1.552.217 2.125-1.04.001 0 6.075 3.589 16.07 3.161z" fill="none" stroke="#699635" stroke-miterlimit="10"/><ellipse cx="8.833" cy="53.793" fill="#699635" rx="1.917" ry="1.287"/><g fill="#f9f3d9"><path d="m18.992 52.16c0 0-2.33 3.02-7.262 7.06l.225 2.768-3.529-.76-.236-2.907c0 0 5.063-4.713 6.229-6.971 0 .001 1.75.527 4.573.811"/><path d="m42.09 51.52c0 0 .929 2.373 7.67 6.843v2.926l3.88-1.2v-3.045c0 0-4.702-3.283-7.504-6.622l-4.046 1.098"/></g><path d="m36.408 48.31l-2.228-.12-.18 4.13 8.892 5.68 20.892-5.65.158-3.615-7.313-5.101z" fill="#699635"/><path d="m34.571 45.838c0 0 2.216 4.157 8.7 8.02 0 0 10.386.028 20.729-6.446 0 0-5.697-3.291-7.141-7.408 0-.001-4.219 5.571-22.288 5.837" fill="#83bf4f"/><path d="m39.08 46.928c0 0 .509.766-1.083 1.072l4.194 3.347c0 0 2.364-.643 3.223.82 0 0 10-1.75 14.583-4.167 0 0-1.5-.733 0-1.583 0 0-1.833-1.494-2.5-2.497 0 0-1.697.501-2.583-.67 0 0-3.585 3.105-15.834 3.678z" fill="none" stroke="#699635" stroke-miterlimit="10"/><path d="m46.795 49.39c-.434.537-1.67.738-2.768.444-1.097-.294-1.639-.972-1.209-1.511.434-.538 1.671-.737 2.768-.444 1.098.295 1.64.971 1.209 1.511" fill="#699635"/><path d="m44.84 44.963c0 0 2.44 3.219 7.525 7.475l-.134 3.037 3.52-.953.14-3.188c0 0-5.241-4.982-6.485-7.413-.001-.001-1.74.634-4.566 1.042" fill="#f9f3d9"/><path d="m46 2c0 6.06-7.856 16-14 16s-14-8.937-14-15c0-6.07.856 0 7 0 .882 0 5.139-3 7-3 1.33 0 4.969 3 7 3 5.333 0 7-5.573 7-1" fill="#dbb471"/><path d="m30.17 13.254c-.604.362-3.453.06-4.4.829-1.161.944.528 3.039-.67 4.274-2.371 2.445-4.296 5.115-3.728 6.643.959 2.577 2.875-4.77 4.625-2.01s1.375-1.857 4 .514.369-4.254 2.935-1.379 2.642 6.245 4.44 6.25c2.126.006-2.25-7.854.625-5.989s5.867 1.23 3.089-1.698c-.863-.909-2.135-2.486-3.516-3.917-.52-.539-.056-3.057-.591-3.511-.557-.472-2.113 1.126-2.651.842-1.157-.61-.775.511-2.602.837-1.319.235-.302-2.437-1.556-1.685" fill="#89664c"/><path d="m18.707 19.21c3.868-3.69 11.02-1.633 15.16.156 4.058 1.758 6.558-3.945 4.01-6.785-1.487-1.66-3.853.332-4.846 1.479-1.017 1.175-1.811 2.519-2.857 3.672-1.613 1.776-5.544.31-4.282-2.245 1.272-2.579 6.79.396 8.633.924 3.521 1.01 7.24 1.394 10.743.139 1.205-.432.686-2.364-.531-1.928-3.867 1.385-7.757.488-11.548-.7-1.875-.588-4.949-2.241-6.948-1.302-5.712 2.684-.361 10.415 4.369 7.373 1.07-.688 1.841-1.839 2.584-2.845.458-.619 2.997-4.431 3.576-2.531.295.968.02 2.753-1.058 3.137-.723.258-2.139-.669-2.843-.949-1.279-.509-2.612-.862-3.956-1.153-3.668-.794-8.707-.634-11.619 2.145-.935.891.481 2.303 1.414 1.413" fill="#e8e8e8"/><path d="m44.84.533c-1.042.743-2.873 2.467-5.84 2.467-2.031 0-5.67-3-7-3-1.861 0-6.118 3-7 3-3.299 0-5.071-1.747-6.01-2.428.001.004 1.106 4.491 4.509 6.761 2.499 1.667 2.167-.25 3.5-2s2.235-2.666 4.468 1.834c1.22 2.459 3.462-6.787 5.282-3.834 3.338 5.417 4.512 2.483 8.089-2.8" fill="#89664c"/><g fill="#dbb471"><path d="m52.37 52.44l-.134 3.037 3.52-.953.14-3.188c0-.001-2.073.736-3.526 1.104"/><path d="m49.759 58.36v2.926l3.88-1.2v-3.045c0 0-1.084.588-3.88 1.319"/><path d="m11.73 59.22l.225 2.768-3.529-.76-.236-2.907c0 0 1.379.486 3.54.899"/></g></g></symbol><symbol id="1f5fd" viewBox="0 0 64 64" preserveAspectRatio="xMidYMid meet"><rect x="0" y="0" width="64" height="64" style="stroke:none;fill:none;"/><g xmlns="http://www.w3.org/2000/svg"><g fill="#428bc1"><path d="m26.05 23.529h15.962v13.868h-15.962z"/><path d="m23.264 27.04c0 0-6.903.244-5.456 11.218l4.02 12.915 7.561-16.747-6.125-7.386"/></g><g fill="#42ade2"><path d="m12.707 18.601l7.137 15.362c0 0 3.063-.692 3.063-5.171l-6.886-12.08-3.314 1.89"/><path d="m40.38 34.645c-2.459-2.229-10.251-2.229-12.711 0-7.313 6.626-7.495 27.355-7.495 27.355h27.7c0 0-.183-20.729-7.494-27.355"/></g><path d="m42.02 20.19l-.92-.669.49-6.594-3.41 5.354-2.01-.652-2.14-7.693-2.137 7.693-2.01.652-3.412-5.354.493 6.594-.921.669-6.97-1.218 7.398 5.496h7.562 7.56l7.395-5.496z" fill="#428bc1"/><path d="m41.24 24.04c0 5.686-5.264 8.426-7.213 8.426-1.95 0-7.214-2.74-7.214-8.426 0 0 14.427-4.384 14.427 0" fill="#42ade2"/><path d="m44.1 54.939l-8.08-8 10.904-10.798 8.08 8z" fill="#428bc1"/><g fill="#42ade2"><path d="m52.952 49.34c-.386.381-1.01.381-1.395 0l-2.047-2.029c-.386-.383-.386-1 0-1.382l.034-.035c.386-.381 1.01-.381 1.394 0l2.049 2.029c.386.382.386 1 0 1.382l-.035.035"/><path d="m51.888 50.909c-.387.381-1.058.334-1.502-.105l-2.359-2.337c-.443-.439-.491-1.105-.105-1.487l.034-.034c.386-.381 1.058-.334 1.501.105l2.36 2.337c.443.439.488 1.105.104 1.487l-.033.034"/><path d="m50.559 52.22c-.385.382-1.057.335-1.5-.104l-2.359-2.338c-.444-.439-.491-1.104-.105-1.486l.034-.034c.387-.382 1.057-.334 1.5.105l2.36 2.337c.443.439.49 1.105.105 1.486l-.035.034"/><path d="m48.972 52.803c-.331.329-.868.329-1.199 0l-1.764-1.746c-.331-.328-.331-.861 0-1.189l.03-.029c.331-.328.868-.328 1.2 0l1.763 1.747c.332.328.332.86 0 1.188l-.03.029"/></g><g fill="#428bc1"><path d="m38.609 38.25c0 0-7.189 10.674-3.613 23.747h-5.508c0 0-1.725-14.858 9.121-23.747"/><path d="m38.03 50.42c0 0-3.507 5.206-1.763 11.583h-2.686c.001 0-.841-7.247 4.449-11.583"/><path d="m32.09 35.569c0 0-8 11.881-4.02 26.431h-6.128c0 0-1.92-16.537 10.152-26.431"/></g><path d="m23.788 27.668l2.929 3.532c0 0 1.579 5.638-2.929 10.162 0-.001 2.086-7.206 0-13.694" fill="#42ade2"/><g fill="#428bc1"><path d="m35.866 28.576c0 .24-.823.609-1.837.609-1.016 0-1.837-.37-1.837-.609 0-.154 3.674-.154 3.674 0"/><path d="m35.17 30.438c0 .164-.526.417-1.175.417-.649 0-1.176-.253-1.176-.417 0-.106 2.351-.106 2.351 0"/><path d="m39.468 25.13c0 .555-.794 1.406-1.771 1.406-.979 0-1.771-.852-1.771-1.406-.001-.355 3.542-.355 3.542 0"/><path d="m32.13 25.13c0 .555-.794 1.406-1.771 1.406-.979 0-1.772-.852-1.772-1.406 0-.355 3.543-.355 3.543 0"/></g><path d="m11.661 11.754c0 0-2.127-1.373-1.859-3.998.309-3.01 2.672-4.051 2.672-4.051s-.63 2.518 0 2.878c.419.241 1.765.01 1.93-2.324.053-.738-.943-2.259-.943-2.259s2.263.772 3.122 2.748c.636 1.465.014 4.02.014 4.02s1.116-.297 1.614-1.742c0 0 .58 3.256-1.965 4.727h-4.585" fill="#ff9d27"/><path d="m15.952 22.01c0 1.035-.824 1.875-1.84 1.875h-.467c-1.016 0-1.84-.84-1.84-1.875l.022-8.146h4.147l-.022 8.146" fill="#428bc1"/><g fill="#42ade2"><path d="m9.742 15.9c0 .54.442.977.986.977h2.897c.545 0 .985-.438.985-.977v-.049c0-.54-.44-.977-.985-.977h-2.897c-.544 0-.986.438-.986.977v.049"/><path d="m9.373 17.76c0 .54.508.978 1.136.978h3.337c.627 0 1.136-.438 1.136-.978v-.047c0-.54-.508-.978-1.136-.978h-3.337c-.627 0-1.136.438-1.136.978v.047"/><path d="m9.371 19.62c.001.54.51.978 1.137.978h3.337c.626 0 1.136-.438 1.136-.978v-.047c0-.541-.508-.978-1.136-.978h-3.337c-.627 0-1.136.438-1.136.978l-.001.047"/><path d="m10.08 21.14c0 .465.38.841.849.841h2.493c.468 0 .849-.375.849-.841v-.042c0-.463-.38-.84-.849-.84h-2.493c-.469 0-.849.377-.849.84v.042"/><ellipse cx="15.975" cy="16.04" rx="1.172" ry="1.159"/><path d="m18.204 12.01v.932h-.92v-.932h-.92v.932h-.92v-.932h-.92v.932h-.92v-.932h-.92v.932h-.92v-.932h-.92v.932h-.92v-.932h-.924v.932 1.466h10.13v-1.466-.932z"/></g></g></symbol></defs><rect x="220.99993896487388" y="93.99996948239763" style="fill:url(#gradient1);stroke:black;stroke-width:1px;" id="e1_rectangle" width="292" height="522"/><path d="M177.49892482768644,92.9956392288742c318.00066719053905,-1.8594903394841822e-10,311.00065250393595,306.00064201345924,339.0007112503846,-1.0000020982707554" style="fill:white;stroke:white;stroke-width:1px;" id="e3_arc3"/><rect x="220.99993896487388" y="93.99996948239763" style="fill:url(#gradient1);stroke:black;stroke-width:1px;" id="e2_rectangle" width="292" height="522"/><path d="M177.49892482768644,92.9956392288742c318.00066719053905,-1.8594903394841822e-10,311.00065250393595,306.00064201345924,339.0007112503846,-1.0000020982707554" style="fill:white;stroke:white;stroke-width:1px;" id="e2_arc3"/><rect x="220.99993896487388" y="93.99996948239763" style="fill:url(#gradient1);stroke:black;stroke-width:1px;" id="e3_rectangle" width="292" height="522"/><path d="M177.49892482768644,92.9956392288742c318.00066719053905,-1.8594903394841822e-10,311.00065250393595,306.00064201345924,339.0007112503846,-1.0000020982707554" style="fill:white;stroke:white;stroke-width:1px;" id="e4_arc3"/><rect x="220.99993896484375" y="93.99996604919434" style="fill:url(#gradient1);stroke:black;stroke-width:1px;" id="e4_rectangle" width="292" height="522"/><path d="M184.49893982295802,93.9956399999823c417.00087417704196,-2.0000039999822974,328.000688177042,146.0003150000177,331.00069417704196,-8.000016999982307" style="fill:white;stroke:white;stroke-width:1px;" id="e5_arc3"/><path d="M-7.70414066162313,-6.106209848316853l-2,2.000000000000014v3.9999999999999987l2,2.0000000000000053h4.000000000000002l1.999999999999999,-2.0000000000000027v-4.000000000000002l-1.999999999999999,-2.000000000000009Z" style="fill: none; stroke: url(&quot;#gradient1&quot;); vector-effect: non-scaling-stroke; stroke-width:6.84px;" id="e5_shape" transform="matrix(21.3541 0 0 17.3724 834.401 286.216)"/><use xlink:href="#1f5fd" x="672.5947875976957" y="202.12599182131828" width="80.00016784669936" height="80.00016784669936" id="e10_emoji"/></svg>